<svg width="25" height="26" viewBox="0 0 25 26" fill="none" xmlns="http://www.w3.org/2000/svg">
<g clip-path="url(#clip0_3896_11567)">
<path d="M17.46 7.09005V11.21C17.4548 11.3648 17.389 11.5113 17.2767 11.6179C17.1645 11.7245 17.0148 11.7828 16.86 11.78C16.7839 11.7814 16.7082 11.7677 16.6373 11.7397C16.5664 11.7118 16.5017 11.6702 16.447 11.6173C16.3922 11.5643 16.3483 11.5011 16.318 11.4313C16.2876 11.3614 16.2713 11.2862 16.27 11.21V7.64005H7.19003V17.64H10.91C10.9865 17.6374 11.0628 17.6501 11.1343 17.6776C11.2058 17.705 11.271 17.7466 11.3261 17.7998C11.3811 17.853 11.4249 17.9167 11.4548 17.9872C11.4847 18.0577 11.5001 18.1335 11.5 18.21C11.4948 18.363 11.4304 18.508 11.3203 18.6144C11.2102 18.7207 11.0631 18.7801 10.91 18.78H6.60003C6.52254 18.7814 6.44556 18.7674 6.37347 18.739C6.30138 18.7106 6.2356 18.6682 6.17988 18.6143C6.12416 18.5605 6.0796 18.4962 6.04874 18.4251C6.01788 18.354 6.00133 18.2775 6.00003 18.2V7.09005C5.99929 7.01229 6.01393 6.93515 6.0431 6.86308C6.07228 6.791 6.11541 6.7254 6.17003 6.67005C6.2855 6.55915 6.43994 6.49809 6.60003 6.50005H16.86C17.0201 6.49809 17.1746 6.55915 17.29 6.67005C17.3985 6.78303 17.4594 6.93341 17.46 7.09005ZM14.22 10.21C14.3526 10.21 14.4798 10.1574 14.5736 10.0636C14.6673 9.96983 14.72 9.84265 14.72 9.71005C14.72 9.57744 14.6673 9.45026 14.5736 9.35649C14.4798 9.26272 14.3526 9.21005 14.22 9.21005H8.22003C8.08742 9.21005 7.96024 9.26272 7.86647 9.35649C7.7727 9.45026 7.72003 9.57744 7.72003 9.71005C7.72003 9.84265 7.7727 9.96983 7.86647 10.0636C7.96024 10.1574 8.08742 10.21 8.22003 10.21H14.22ZM11.13 12.82C11.1952 12.8227 11.2603 12.8124 11.3214 12.7896C11.3825 12.7668 11.4384 12.732 11.4859 12.6873C11.5335 12.6426 11.5715 12.5888 11.598 12.5292C11.6245 12.4696 11.6388 12.4053 11.64 12.34C11.6387 12.2744 11.6245 12.2096 11.5982 12.1494C11.5718 12.0893 11.5339 12.0349 11.4865 11.9894C11.4392 11.9439 11.3833 11.9082 11.3221 11.8843C11.261 11.8603 11.1957 11.8487 11.13 11.85H8.20003C8.06742 11.85 7.94024 11.9027 7.84647 11.9965C7.7527 12.0903 7.70003 12.2174 7.70003 12.35C7.70003 12.4827 7.7527 12.6098 7.84647 12.7036C7.94024 12.7974 8.06742 12.85 8.20003 12.85L11.13 12.82Z" fill="white"/>
<path d="M17.3516 15.009L15.0662 12.6598C15.0175 12.6093 14.9603 12.5706 14.8964 12.542C14.8325 12.5151 14.7635 12.5 14.6946 12.5C14.6257 12.5 14.5567 12.5135 14.4928 12.5404C14.4289 12.5673 14.37 12.6059 14.3213 12.6564C14.2221 12.7573 14.1666 12.8935 14.1649 13.0348C14.1649 13.176 14.2187 13.3139 14.3179 13.4148L15.6784 14.8139H11.5281C11.2355 14.8139 11.0017 15.0544 11.0017 15.3504H11C10.9984 15.4916 11.0538 15.6278 11.1531 15.7287C11.2523 15.8296 11.3868 15.8868 11.5264 15.8868H15.7187L14.323 17.2775C14.2221 17.3784 14.1666 17.513 14.1649 17.6559C14.1632 17.7972 14.217 17.9351 14.3145 18.0376C14.3633 18.0881 14.4205 18.1284 14.4844 18.157C14.5483 18.1856 14.6172 18.1991 14.6862 18.2008C14.7551 18.2008 14.8241 18.189 14.8897 18.1621C14.9536 18.1352 15.0124 18.0965 15.0612 18.0477L17.3465 15.7725C17.4474 15.6716 17.5046 15.5354 17.5063 15.3924C17.5063 15.2478 17.4508 15.1099 17.3516 15.009Z" fill="white"/>
</g>
<defs>
<clipPath id="clip0_3896_11567">
<rect width="13" height="13" fill="white" transform="translate(6 6.5)"/>
</clipPath>
</defs>
</svg>
