<svg width="34" height="34" viewBox="0 0 34 34" fill="none" xmlns="http://www.w3.org/2000/svg">
<g clip-path="url(#clip0_416_2514)">
<path d="M16.6238 24.3193C20.8742 24.3193 24.3198 20.8737 24.3198 16.6233C24.3198 12.3729 20.8742 8.92725 16.6238 8.92725C12.3734 8.92725 8.92773 12.3729 8.92773 16.6233C8.92773 20.8737 12.3734 24.3193 16.6238 24.3193Z" stroke="#4A5565" stroke-width="1.53921" stroke-linecap="round" stroke-linejoin="round"/>
<path d="M16.6253 8.92725C14.6491 11.0022 13.5469 13.7578 13.5469 16.6233C13.5469 19.4887 14.6491 22.2443 16.6253 24.3193C18.6015 22.2443 19.7037 19.4887 19.7037 16.6233C19.7037 13.7578 18.6015 11.0022 16.6253 8.92725Z" stroke="#4A5565" stroke-width="1.53921" stroke-linecap="round" stroke-linejoin="round"/>
<path d="M8.92773 16.6235H24.3198" stroke="#4A5565" stroke-width="1.53921" stroke-linecap="round" stroke-linejoin="round"/>
</g>
<defs>
<clipPath id="clip0_416_2514">
<rect width="18.4705" height="18.4705" fill="white" transform="translate(7.38867 7.38818)"/>
</clipPath>
</defs>
</svg>
