<svg width="54" height="18" viewBox="0 0 54 18" fill="none" xmlns="http://www.w3.org/2000/svg">
<g clip-path="url(#clip0_416_2506)">
<path d="M13.8473 15.5654C13.8473 15.6197 13.8365 15.6734 13.8155 15.7235C13.7945 15.7736 13.7638 15.8192 13.725 15.8575C13.6862 15.8959 13.6401 15.9263 13.5894 15.9471C13.5388 15.9679 13.4844 15.9786 13.4296 15.9786H0.417727C0.36287 15.9786 0.308551 15.9679 0.25787 15.9471C0.207189 15.9263 0.161139 15.8959 0.12235 15.8575C0.08356 15.8192 0.0527906 15.7736 0.0317978 15.7235C0.0108051 15.6734 0 15.6197 0 15.5654V13.8881C0 13.7785 0.0440105 13.6734 0.12235 13.5959C0.200689 13.5185 0.306939 13.4749 0.417727 13.4749H3.66754L0.246469 8.76933C0.2142 8.72518 0.191079 8.67515 0.178437 8.62213C0.165796 8.56911 0.163885 8.51413 0.172812 8.46037C0.181739 8.40662 0.201329 8.35513 0.230454 8.3089C0.259579 8.26266 0.297665 8.22257 0.342518 8.19095L1.75021 7.20356C1.79538 7.17207 1.84641 7.14976 1.90035 7.13792C1.95429 7.12608 2.01007 7.12493 2.06446 7.13456C2.11885 7.14419 2.17077 7.16439 2.21721 7.194C2.26365 7.22361 2.30369 7.26203 2.33501 7.30706L5.30519 11.5003L11.4248 0.217575C11.4514 0.168988 11.4875 0.126164 11.5311 0.0916351C11.5747 0.0571065 11.6249 0.0315751 11.6786 0.0165511C11.7324 0.00152706 11.7886 -0.00268449 11.844 0.00416535C11.8995 0.0110152 11.9529 0.0287873 12.0013 0.0564308L13.4967 0.919891C13.546 0.94651 13.5894 0.982703 13.6243 1.0263C13.6592 1.0699 13.6848 1.12001 13.6996 1.17363C13.7144 1.22725 13.7182 1.28328 13.7106 1.33836C13.703 1.39344 13.6842 1.44644 13.6554 1.49418L7.1555 13.4749H13.4213C13.5321 13.4749 13.6383 13.5185 13.7166 13.5959C13.795 13.6734 13.839 13.7785 13.839 13.8881L13.8473 15.5654Z" fill="#1566D1"/>
<path d="M45.6429 15.8563C45.6666 15.8172 45.6981 15.7834 45.7357 15.7569C45.7732 15.7305 45.8159 15.7121 45.861 15.7028C45.906 15.6935 45.9526 15.6935 45.9977 15.7029C46.0428 15.7123 46.0854 15.7308 46.1229 15.7573C46.3672 15.9193 46.6451 16.0251 46.9361 16.0672C47.6459 16.0672 47.936 15.8595 48.3426 14.864L48.6759 14.0201L44.8797 6.17151C44.8547 6.12095 44.8431 6.06488 44.8462 6.00866C44.8493 5.95243 44.8668 5.89792 44.8972 5.85032C44.9277 5.80272 44.9699 5.76362 45.0199 5.73674C45.0699 5.70987 45.1261 5.69612 45.183 5.6968H46.7495C46.8136 5.69693 46.8763 5.71535 46.9301 5.74985C46.9839 5.78434 47.0265 5.83346 47.0528 5.89129L49.7425 11.6602L51.8354 5.91789C51.8582 5.85357 51.9005 5.7978 51.9566 5.75825C52.0127 5.7187 52.0798 5.69731 52.1487 5.69703H53.6652C53.7197 5.69698 53.7733 5.71012 53.8215 5.73531C53.8696 5.76051 53.9107 5.79697 53.9413 5.84153C53.9719 5.88609 53.991 5.93738 53.9969 5.99092C54.0028 6.04446 53.9954 6.09861 53.9752 6.14865L50.1591 15.6618C49.4493 17.4517 48.2826 17.9989 47.0694 17.9989C46.3665 17.971 45.6869 17.742 45.113 17.3397C45.0415 17.2925 44.9912 17.2199 44.9726 17.137C44.9539 17.0541 44.9684 16.9673 45.0129 16.8946L45.6429 15.8563Z" fill="#071426"/>
<path d="M30.5516 5.69678C29.6946 5.69678 28.8569 5.94811 28.1444 6.41898C27.4319 6.88986 26.8765 7.55913 26.5486 8.34217C26.2206 9.1252 26.1348 9.98684 26.302 10.8181C26.4692 11.6494 26.8819 12.4129 27.4878 13.0122C28.0938 13.6116 28.8658 14.0197 29.7063 14.185C30.5468 14.3504 31.418 14.2655 32.2097 13.9412C33.0014 13.6168 33.6781 13.0676 34.1542 12.3629C34.6303 11.6582 34.8844 10.8296 34.8844 9.98208C34.8844 8.84555 34.4279 7.75556 33.6154 6.95191C32.8028 6.14826 31.7007 5.69678 30.5516 5.69678ZM30.5183 12.3291C30.0476 12.3291 29.5876 12.1911 29.1962 11.9325C28.8049 11.6739 28.4999 11.3063 28.3198 10.8762C28.1397 10.4462 28.0926 9.97299 28.1844 9.51646C28.2762 9.05992 28.5029 8.64057 28.8356 8.31143C29.1684 7.98228 29.5924 7.75813 30.054 7.66732C30.5156 7.57651 30.9941 7.62312 31.4289 7.80125C31.8637 7.97938 32.2354 8.28104 32.4968 8.66807C32.7583 9.0551 32.8979 9.51012 32.8979 9.9756C32.8979 10.5998 32.6472 11.1984 32.2009 11.6398C31.7546 12.0811 31.1494 12.3291 30.5183 12.3291Z" fill="#071426"/>
<path d="M42.0071 2.34134V6.29684C41.3502 5.90144 40.5986 5.6861 39.8297 5.67293C39.0608 5.65977 38.3021 5.84925 37.6317 6.22193C36.9613 6.59461 36.4033 7.13706 36.0149 7.79357C35.6266 8.45007 35.4219 9.19698 35.4219 9.95759C35.4219 10.7182 35.6266 11.4651 36.0149 12.1216C36.4033 12.7781 36.9613 13.3206 37.6317 13.6933C38.3021 14.0659 39.0608 14.2554 39.8297 14.2423C40.5986 14.2291 41.3502 14.0138 42.0071 13.6183V13.9052C42.0071 13.9926 42.0422 14.0765 42.1047 14.1383C42.1672 14.2001 42.252 14.2348 42.3404 14.2348H43.7603C43.8486 14.2348 43.9334 14.2001 43.9959 14.1383C44.0584 14.0765 44.0935 13.9926 44.0935 13.9052V2.34134C44.0935 2.25392 44.0584 2.17008 43.9959 2.10826C43.9334 2.04645 43.8486 2.01172 43.7603 2.01172H42.3405C42.2967 2.01171 42.2533 2.02023 42.2129 2.0368C42.1725 2.05336 42.1357 2.07764 42.1048 2.10825C42.0738 2.13886 42.0493 2.1752 42.0325 2.21519C42.0158 2.25519 42.0071 2.29805 42.0071 2.34134ZM39.7307 12.3294C39.4153 12.3299 39.1029 12.2682 38.8118 12.148C38.5207 12.0278 38.2567 11.8515 38.0352 11.6294C37.8137 11.4072 37.6391 11.1437 37.5217 10.8541C37.4042 10.5646 37.3463 10.2548 37.3511 9.94283C37.3711 9.33713 37.6233 8.76163 38.0566 8.33311C38.4899 7.90459 39.0718 7.65514 39.6842 7.63537C39.9996 7.63056 40.3128 7.68791 40.6056 7.80407C40.8984 7.92022 41.1648 8.09287 41.3894 8.31194C41.614 8.531 41.7923 8.7921 41.9138 9.08001C42.0353 9.36792 42.0977 9.67688 42.0972 9.98887C42.0972 10.6131 41.8465 11.2117 41.4003 11.653C40.954 12.0944 40.3487 12.3424 39.7176 12.3424L39.7307 12.3294Z" fill="#071426"/>
<path d="M22.1827 10.4109L24.9358 14.1194C24.9668 14.1603 25.007 14.1935 25.0533 14.2164C25.0996 14.2393 25.1506 14.2512 25.2024 14.2512H26.9988C27.0601 14.2508 27.1202 14.2336 27.1723 14.2016C27.2244 14.1696 27.2665 14.1239 27.2941 14.0698C27.3216 14.0156 27.3336 13.9549 27.3285 13.8944C27.3235 13.834 27.3016 13.7761 27.2654 13.7271L23.3794 8.54185L27.2354 2.51608C27.2668 2.46638 27.2842 2.4093 27.2859 2.35072C27.2876 2.29214 27.2735 2.23417 27.245 2.18278C27.2165 2.1314 27.1746 2.08846 27.1238 2.0584C27.0729 2.02833 27.0148 2.01221 26.9556 2.01172H25.289C25.234 2.01202 25.1801 2.02573 25.1318 2.05164C25.0835 2.07755 25.0425 2.11485 25.0123 2.16022L19.7596 10.2527V2.34134C19.7596 2.29805 19.751 2.25519 19.7342 2.21519C19.7175 2.1752 19.6929 2.13886 19.662 2.10825C19.631 2.07764 19.5943 2.05336 19.5538 2.0368C19.5134 2.02023 19.47 2.01171 19.4263 2.01172H17.9798C17.8914 2.01172 17.8066 2.04645 17.7441 2.10826C17.6816 2.17008 17.6465 2.25392 17.6465 2.34134V13.9216C17.6465 14.009 17.6816 14.0928 17.7441 14.1546C17.8066 14.2164 17.8914 14.2512 17.9798 14.2512H19.5263C19.582 14.2511 19.6369 14.2371 19.6858 14.2106C19.7347 14.1842 19.7761 14.1459 19.8062 14.0995L22.1827 10.4109Z" fill="#071426"/>
</g>
<defs>
<clipPath id="clip0_416_2506">
<rect width="54" height="18" fill="white"/>
</clipPath>
</defs>
</svg>
