<svg width="30" height="30" viewBox="0 0 30 30" fill="none" xmlns="http://www.w3.org/2000/svg">
<path d="M8.5 7C7.79688 7 7.25 7.54688 7.25 8.25V20.75C7.25 21.4531 7.79688 22 8.5 22H21C21.7031 22 22.25 21.4531 22.25 20.75V8.25C22.25 7.54688 21.7031 7 21 7H8.5ZM6 8.25C6 6.88281 7.13281 5.75 8.5 5.75H21C22.3672 5.75 23.5 6.88281 23.5 8.25V20.75C23.5 22.1172 22.3672 23.25 21 23.25H8.5C7.13281 23.25 6 22.1172 6 20.75V8.25ZM14.125 18.25V15.125H11C10.6484 15.125 10.375 14.8516 10.375 14.5C10.375 14.1484 10.6484 13.875 11 13.875H14.125V10.75C14.125 10.3984 14.3984 10.125 14.75 10.125C15.1016 10.125 15.375 10.3984 15.375 10.75V13.875H18.5C18.8516 13.875 19.125 14.1484 19.125 14.5C19.125 14.8516 18.8516 15.125 18.5 15.125H15.375V18.25C15.375 18.6016 15.1016 18.875 14.75 18.875C14.3984 18.875 14.125 18.6016 14.125 18.25Z" fill="#CDD7E4"/>
</svg>
