<svg width="30" height="30" viewBox="0 0 30 30" fill="none" xmlns="http://www.w3.org/2000/svg">
<path d="M8.5 5.75H21C22.3672 5.75 23.5 6.88281 23.5 8.25V20.75C23.5 22.1172 22.3672 23.25 21 23.25H8.5C7.13281 23.25 6 22.1172 6 20.75V8.25C6 6.88281 7.13281 5.75 8.5 5.75ZM13.8125 17.9375C13.8125 18.4453 14.2422 18.875 14.75 18.875C15.2578 18.875 15.6875 18.4453 15.6875 17.9375V15.4375H18.1875C18.6953 15.4375 19.125 15.0078 19.125 14.5C19.125 13.9922 18.6953 13.5625 18.1875 13.5625H15.6875V11.0625C15.6875 10.5547 15.2578 10.125 14.75 10.125C14.2422 10.125 13.8125 10.5547 13.8125 11.0625V13.5625H11.3125C10.8047 13.5625 10.375 13.9922 10.375 14.5C10.375 15.0078 10.8047 15.4375 11.3125 15.4375H13.8125V17.9375Z" fill="#1566D1"/>
</svg>
