<svg width="12" height="13" viewBox="0 0 12 13" fill="none" xmlns="http://www.w3.org/2000/svg">
<g id="&#230;&#151;&#182;&#233;&#151;&#180;icon">
<path id="Vector" d="M5.99984 1.24854C3.09949 1.24854 0.748291 3.59974 0.748291 6.50008C0.748291 9.40043 3.09948 11.7516 5.99983 11.7516C8.90018 11.7516 11.2514 9.40043 11.2514 6.50008C11.2514 3.59974 8.90018 1.24854 5.99984 1.24854ZM8.5427 7.29265C8.5427 7.60045 8.29317 7.84999 7.98536 7.84999H5.62827C5.32045 7.84999 5.07093 7.60046 5.07093 7.29265V4.11116C5.07093 3.80335 5.32045 3.55381 5.62827 3.55381C5.93609 3.55381 6.18562 3.80334 6.18562 4.11116V6.5235C6.18562 6.64047 6.28044 6.73529 6.39742 6.73529H7.98536C8.29317 6.7353 8.5427 6.98483 8.5427 7.29265Z" fill="#6C788D"/>
</g>
</svg>
